<svg xmlns="http://www.w3.org/2000/svg" viewBox="0 0 32 32" width="32" height="32">
  
  <defs>
    <clipPath id="circle">
      <circle cx="16" cy="16" r="16"></circle>
    </clipPath>
  </defs>
  <g clip-path="url(#circle)">
    <rect width="32" height="32" fill="#1A1A1F"></rect>
    
    <path d="M8 14 L12 5 Q13 3 14 5 L16 14 Z" fill="#C8C8C8"></path>
    <path d="M16 14 L18 5 Q20 3 21 5 L24 14 Z" fill="#C8C8C8"></path>
    <path d="M10 14 L12 8 Q13 7 14 8 L14 14 Z" fill="#E8E8E8"></path>
    <path d="M18 14 L18 8 Q20 7 21 8 L22 14 Z" fill="#E8E8E8"></path>
    
    <circle cx="16" cy="18" r="9" fill="#E8E8E8"></circle>
    
    <circle cx="12.5" cy="17" r="3.5" fill="none" stroke="#9A9A9A" stroke-width="1.5"></circle>
    <circle cx="19.5" cy="17" r="3.5" fill="none" stroke="#9A9A9A" stroke-width="1.5"></circle>
    <line x1="15" y1="17" x2="17" y2="17" stroke="#9A9A9A" stroke-width="1.5"></line>
    
    <circle cx="12.5" cy="15.5" r="1.3" fill="#1A1A1F"></circle>
    <circle cx="19.5" cy="15.5" r="1.3" fill="#1A1A1F"></circle>
    <circle cx="13" cy="15" r="0.4" fill="#FFFFFF"></circle>
    <circle cx="20" cy="15" r="0.4" fill="#FFFFFF"></circle>
    
    <ellipse cx="16" cy="19.5" rx="0.9" ry="0.7" fill="#9A9A9A"></ellipse>
    
    <path d="M14.5 21 Q16 22.5 17.5 21" fill="none" stroke="#9A9A9A" stroke-width="0.8" stroke-linecap="round"></path>
    
    <rect x="9" y="10.5" width="14" height="2" rx="0.8" fill="#C8C8C8"></rect>
    
    <polygon points="10,10.5 16,5 22,10.5" fill="#E8E8E8"></polygon>
    
    <line x1="22" y1="10.5" x2="26" y2="6" stroke="#1A1A1F" stroke-width="1.8" stroke-linecap="round"></line>
    <circle cx="26" cy="6" r="1.3" fill="#1A1A1F"></circle>
  </g>
</svg>