<svg xmlns="http://www.w3.org/2000/svg" viewBox="0 0 64 64" width="64" height="64">
  
  <rect width="64" height="64" rx="14" fill="#1A1A1F"></rect>
  
  <circle cx="10" cy="11" r="2" fill="#FF5F57"></circle>
  <circle cx="18" cy="11" r="2" fill="#FEBC2E"></circle>
  <circle cx="26" cy="11" r="2" fill="#28C840"></circle>
  
  <path d="M22 34 L26 26 Q27 24 28 26 L30 34 Z" fill="#C8C8C8"></path>
  <path d="M34 34 L36 26 Q38 24 40 26 L42 34 Z" fill="#C8C8C8"></path>
  <path d="M24 34 L26 28 Q27 27 28 28 L28 34 Z" fill="#E8E8E8"></path>
  <path d="M36 34 L36 28 Q38 27 40 28 L40 34 Z" fill="#E8E8E8"></path>
  
  <circle cx="32" cy="39" r="10" fill="#E8E8E8"></circle>
  
  <circle cx="28" cy="37" r="4" fill="none" stroke="#9A9A9A" stroke-width="1.5"></circle>
  <circle cx="36" cy="37" r="4" fill="none" stroke="#9A9A9A" stroke-width="1.5"></circle>
  <line x1="31" y1="37" x2="33" y2="37" stroke="#9A9A9A" stroke-width="1.5"></line>
  <line x1="24" y1="37" x2="22" y2="35" stroke="#9A9A9A" stroke-width="1.5" stroke-linecap="round"></line>
  <line x1="40" y1="37" x2="42" y2="35" stroke="#9A9A9A" stroke-width="1.5" stroke-linecap="round"></line>
  
  <circle cx="28" cy="35" r="1.5" fill="#1A1A1F"></circle>
  <circle cx="36" cy="35" r="1.5" fill="#1A1A1F"></circle>
  <circle cx="28.5" cy="34.5" r="0.5" fill="#FFFFFF"></circle>
  <circle cx="36.5" cy="34.5" r="0.5" fill="#FFFFFF"></circle>
  
  <ellipse cx="32" cy="40" rx="1" ry="0.8" fill="#9A9A9A"></ellipse>
  
  <path d="M30 42 Q32 44 34 42" fill="none" stroke="#9A9A9A" stroke-width="1" stroke-linecap="round"></path>
  
  <rect x="24" y="27" width="16" height="2.5" rx="1" fill="#C8C8C8"></rect>
  
  <polygon points="25,27 32,22 39,27" fill="#E8E8E8"></polygon>
  
  <line x1="39" y1="27" x2="44" y2="22" stroke="#1A1A1F" stroke-width="2" stroke-linecap="round"></line>
  <circle cx="44" cy="22" r="1.5" fill="#1A1A1F"></circle>
</svg>